<?xml version="1.0" encoding="UTF-8" standalone="no"?>
<!DOCTYPE svg PUBLIC "-//W3C//DTD SVG 1.1//EN"
 "http://www.w3.org/Graphics/SVG/1.1/DTD/svg11.dtd">
<!-- Generated by graphviz version 2.47.0 (20210316.0004)
 -->
<!-- Title: dependencies Pages: 1 -->
<svg width="504pt" height="211pt"
 viewBox="0.00 0.00 504.00 211.00" xmlns="http://www.w3.org/2000/svg" xmlns:xlink="http://www.w3.org/1999/xlink">
<g id="graph0" class="graph" transform="scale(1 1) rotate(0) translate(4 207)">
<title>dependencies</title>
<polygon fill="white" stroke="transparent" points="-4,4 -4,-207 500,-207 500,4 -4,4"/>
<text text-anchor="start" x="227.01" y="-42.4" font-family="Times-12" font-weight="bold" font-size="14.00">Legend</text>
<polygon fill="#ffffb3" stroke="transparent" points="14,-10 14,-30 34,-30 34,-10 14,-10"/>
<text text-anchor="start" x="37.63" y="-15.4" font-family="Times-12" font-size="14.00"> &#160;Declarations</text>
<polygon fill="#8dd3c7" stroke="transparent" points="127,-10 127,-30 147,-30 147,-10 127,-10"/>
<text text-anchor="start" x="150.73" y="-15.4" font-family="Times-12" font-size="14.00"> &#160;Module</text>
<polygon fill="#80b1d3" stroke="transparent" points="213,-10 213,-30 233,-30 233,-10 213,-10"/>
<text text-anchor="start" x="236.78" y="-15.4" font-family="Times-12" font-size="14.00"> &#160;Bootstrap</text>
<polygon fill="#fdb462" stroke="transparent" points="310,-10 310,-30 330,-30 330,-10 310,-10"/>
<text text-anchor="start" x="333.67" y="-15.4" font-family="Times-12" font-size="14.00"> &#160;Providers</text>
<polygon fill="#fb8072" stroke="transparent" points="406,-10 406,-30 426,-30 426,-10 406,-10"/>
<text text-anchor="start" x="429.73" y="-15.4" font-family="Times-12" font-size="14.00"> &#160;Exports</text>
<g id="clust1" class="cluster">
<title>cluster_TasksModule</title>
<polygon fill="none" stroke="black" stroke-dasharray="1,5" points="108,-70 108,-195 388,-195 388,-70 108,-70"/>
</g>
<g id="clust6" class="cluster">
<title>cluster_TasksModule_providers</title>
<polygon fill="none" stroke="black" points="238,-78 238,-130 380,-130 380,-78 238,-78"/>
</g>
<g id="clust3" class="cluster">
<title>cluster_TasksModule_imports</title>
<polygon fill="none" stroke="black" points="116,-78 116,-130 230,-130 230,-78 116,-78"/>
</g>
<!-- PrismaModule -->
<g id="node1" class="node">
<title>PrismaModule</title>
<polygon fill="#8dd3c7" stroke="black" points="222.43,-122 219.43,-126 198.43,-126 195.43,-122 123.57,-122 123.57,-86 222.43,-86 222.43,-122"/>
<text text-anchor="middle" x="173" y="-99.8" font-family="Times,serif" font-size="14.00">PrismaModule</text>
</g>
<!-- TasksModule -->
<g id="node2" class="node">
<title>TasksModule</title>
<polygon fill="#8dd3c7" stroke="black" points="287.21,-187 284.21,-191 263.21,-191 260.21,-187 194.79,-187 194.79,-151 287.21,-151 287.21,-187"/>
<text text-anchor="middle" x="241" y="-164.8" font-family="Times,serif" font-size="14.00">TasksModule</text>
</g>
<!-- PrismaModule&#45;&gt;TasksModule -->
<g id="edge1" class="edge">
<title>PrismaModule&#45;&gt;TasksModule</title>
<path fill="none" stroke="black" d="M208.56,-122.11C208.56,-122.11 208.56,-140.99 208.56,-140.99"/>
<polygon fill="black" stroke="black" points="205.06,-140.99 208.56,-150.99 212.06,-140.99 205.06,-140.99"/>
</g>
<!-- TasksService -->
<g id="node3" class="node">
<title>TasksService</title>
<ellipse fill="#fdb462" stroke="black" cx="309" cy="-104" rx="62.54" ry="18"/>
<text text-anchor="middle" x="309" y="-99.8" font-family="Times,serif" font-size="14.00">TasksService</text>
</g>
<!-- TasksService&#45;&gt;TasksModule -->
<g id="edge2" class="edge">
<title>TasksService&#45;&gt;TasksModule</title>
<path fill="none" stroke="black" d="M266.79,-117.47C266.79,-117.47 266.79,-140.86 266.79,-140.86"/>
<polygon fill="black" stroke="black" points="263.29,-140.86 266.79,-150.86 270.29,-140.86 263.29,-140.86"/>
</g>
</g>
</svg>
