<?xml version="1.0" encoding="UTF-8" standalone="no"?>
<!DOCTYPE svg PUBLIC "-//W3C//DTD SVG 1.1//EN"
 "http://www.w3.org/Graphics/SVG/1.1/DTD/svg11.dtd">
<!-- Generated by graphviz version 2.47.0 (20210316.0004)
 -->
<!-- Title: dependencies Pages: 1 -->
<svg width="1158pt" height="287pt"
 viewBox="0.00 0.00 1158.00 287.00" xmlns="http://www.w3.org/2000/svg" xmlns:xlink="http://www.w3.org/1999/xlink">
<g id="graph0" class="graph" transform="scale(1 1) rotate(0) translate(4 283)">
<title>dependencies</title>
<polygon fill="white" stroke="transparent" points="-4,4 -4,-283 1154,-283 1154,4 -4,4"/>
<text text-anchor="start" x="554.01" y="-42.4" font-family="Times-12" font-weight="bold" font-size="14.00">Legend</text>
<polygon fill="#ffffb3" stroke="transparent" points="341,-10 341,-30 361,-30 361,-10 341,-10"/>
<text text-anchor="start" x="364.63" y="-15.4" font-family="Times-12" font-size="14.00"> &#160;Declarations</text>
<polygon fill="#8dd3c7" stroke="transparent" points="454,-10 454,-30 474,-30 474,-10 454,-10"/>
<text text-anchor="start" x="477.73" y="-15.4" font-family="Times-12" font-size="14.00"> &#160;Module</text>
<polygon fill="#80b1d3" stroke="transparent" points="540,-10 540,-30 560,-30 560,-10 540,-10"/>
<text text-anchor="start" x="563.78" y="-15.4" font-family="Times-12" font-size="14.00"> &#160;Bootstrap</text>
<polygon fill="#fdb462" stroke="transparent" points="637,-10 637,-30 657,-30 657,-10 637,-10"/>
<text text-anchor="start" x="660.67" y="-15.4" font-family="Times-12" font-size="14.00"> &#160;Providers</text>
<polygon fill="#fb8072" stroke="transparent" points="733,-10 733,-30 753,-30 753,-10 733,-10"/>
<text text-anchor="start" x="756.73" y="-15.4" font-family="Times-12" font-size="14.00"> &#160;Exports</text>
<g id="clust1" class="cluster">
<title>cluster_AppModule</title>
<polygon fill="none" stroke="black" stroke-dasharray="1,5" points="464,-70 464,-271 844,-271 844,-70 464,-70"/>
</g>
<g id="clust3" class="cluster">
<title>cluster_AppModule_imports</title>
<polygon fill="none" stroke="black" points="610,-78 610,-206 824,-206 824,-78 610,-78"/>
</g>
<g id="clust6" class="cluster">
<title>cluster_AppModule_providers</title>
<polygon fill="none" stroke="black" points="472,-154 472,-206 602,-206 602,-154 472,-154"/>
</g>
<g id="clust7" class="cluster">
<title>cluster_AuthModule</title>
<polygon fill="none" stroke="black" stroke-dasharray="1,5" points="8,-70 8,-138 290,-138 290,-70 8,-70"/>
</g>
<g id="clust12" class="cluster">
<title>cluster_AuthModule_providers</title>
<polygon fill="none" stroke="black" points="16,-78 16,-130 282,-130 282,-78 16,-78"/>
</g>
<g id="clust13" class="cluster">
<title>cluster_PrismaModule</title>
<polygon fill="none" stroke="black" stroke-dasharray="1,5" points="852,-146 852,-214 1142,-214 1142,-146 852,-146"/>
</g>
<g id="clust16" class="cluster">
<title>cluster_PrismaModule_exports</title>
<polygon fill="none" stroke="black" points="1018,-154 1018,-206 1134,-206 1134,-154 1018,-154"/>
</g>
<g id="clust18" class="cluster">
<title>cluster_PrismaModule_providers</title>
<polygon fill="none" stroke="black" points="860,-154 860,-206 1010,-206 1010,-154 860,-154"/>
</g>
<g id="clust19" class="cluster">
<title>cluster_TasksModule</title>
<polygon fill="none" stroke="black" stroke-dasharray="1,5" points="298,-70 298,-138 456,-138 456,-70 298,-70"/>
</g>
<g id="clust24" class="cluster">
<title>cluster_TasksModule_providers</title>
<polygon fill="none" stroke="black" points="306,-78 306,-130 448,-130 448,-78 306,-78"/>
</g>
<!-- AuthModule -->
<g id="node1" class="node">
<title>AuthModule</title>
<polygon fill="#8dd3c7" stroke="black" points="705.55,-198 702.55,-202 681.55,-202 678.55,-198 618.45,-198 618.45,-162 705.55,-162 705.55,-198"/>
<text text-anchor="middle" x="662" y="-175.8" font-family="Times,serif" font-size="14.00">AuthModule</text>
</g>
<!-- AppModule -->
<g id="node4" class="node">
<title>AppModule</title>
<polygon fill="#8dd3c7" stroke="black" points="757.66,-263 754.66,-267 733.66,-267 730.66,-263 674.34,-263 674.34,-227 757.66,-227 757.66,-263"/>
<text text-anchor="middle" x="716" y="-240.8" font-family="Times,serif" font-size="14.00">AppModule</text>
</g>
<!-- AuthModule&#45;&gt;AppModule -->
<g id="edge1" class="edge">
<title>AuthModule&#45;&gt;AppModule</title>
<path fill="none" stroke="black" d="M689.97,-198.11C689.97,-198.11 689.97,-216.99 689.97,-216.99"/>
<polygon fill="black" stroke="black" points="686.47,-216.99 689.97,-226.99 693.47,-216.99 686.47,-216.99"/>
</g>
<!-- PrismaModule -->
<g id="node2" class="node">
<title>PrismaModule</title>
<polygon fill="#8dd3c7" stroke="black" points="816.43,-122 813.43,-126 792.43,-126 789.43,-122 717.57,-122 717.57,-86 816.43,-86 816.43,-122"/>
<text text-anchor="middle" x="767" y="-99.8" font-family="Times,serif" font-size="14.00">PrismaModule</text>
</g>
<!-- PrismaModule&#45;&gt;AuthModule -->
<g id="edge5" class="edge">
<title>PrismaModule&#45;&gt;AuthModule</title>
<path fill="none" stroke="black" d="M717.69,-113C699.8,-113 683.89,-113 683.89,-113 683.89,-113 683.89,-151.69 683.89,-151.69"/>
<polygon fill="black" stroke="black" points="680.39,-151.69 683.89,-161.69 687.39,-151.69 680.39,-151.69"/>
</g>
<!-- TasksModule -->
<g id="node3" class="node">
<title>TasksModule</title>
<polygon fill="#8dd3c7" stroke="black" points="816.21,-198 813.21,-202 792.21,-202 789.21,-198 723.79,-198 723.79,-162 816.21,-162 816.21,-198"/>
<text text-anchor="middle" x="770" y="-175.8" font-family="Times,serif" font-size="14.00">TasksModule</text>
</g>
<!-- PrismaModule&#45;&gt;TasksModule -->
<g id="edge10" class="edge">
<title>PrismaModule&#45;&gt;TasksModule</title>
<path fill="none" stroke="black" d="M770,-122.01C770,-122.01 770,-151.85 770,-151.85"/>
<polygon fill="black" stroke="black" points="766.5,-151.85 770,-161.85 773.5,-151.85 766.5,-151.85"/>
</g>
<!-- PrismaModule&#45;&gt;AppModule -->
<g id="edge2" class="edge">
<title>PrismaModule&#45;&gt;AppModule</title>
<path fill="none" stroke="black" d="M717.73,-104C712.92,-104 709.78,-104 709.78,-104 709.78,-104 709.78,-216.86 709.78,-216.86"/>
<polygon fill="black" stroke="black" points="706.28,-216.86 709.78,-226.86 713.28,-216.86 706.28,-216.86"/>
</g>
<!-- PrismaService  -->
<g id="node8" class="node">
<title>PrismaService </title>
<polygon fill="#fb8072" stroke="black" points="1126.36,-198 1025.64,-198 1025.64,-162 1126.36,-162 1126.36,-198"/>
<text text-anchor="middle" x="1076" y="-175.8" font-family="Times,serif" font-size="14.00">PrismaService </text>
</g>
<!-- PrismaModule&#45;&gt;PrismaService  -->
<g id="edge8" class="edge">
<title>PrismaModule&#45;&gt;PrismaService </title>
<path fill="none" stroke="black" stroke-dasharray="5,2" d="M816.3,-98C903.54,-98 1076,-98 1076,-98 1076,-98 1076,-151.8 1076,-151.8"/>
<polygon fill="black" stroke="black" points="1072.5,-151.8 1076,-161.8 1079.5,-151.8 1072.5,-151.8"/>
</g>
<!-- TasksModule&#45;&gt;AppModule -->
<g id="edge3" class="edge">
<title>TasksModule&#45;&gt;AppModule</title>
<path fill="none" stroke="black" d="M740.86,-198.11C740.86,-198.11 740.86,-216.99 740.86,-216.99"/>
<polygon fill="black" stroke="black" points="737.36,-216.99 740.86,-226.99 744.36,-216.99 737.36,-216.99"/>
</g>
<!-- AppService -->
<g id="node5" class="node">
<title>AppService</title>
<ellipse fill="#fdb462" stroke="black" cx="537" cy="-180" rx="56.74" ry="18"/>
<text text-anchor="middle" x="537" y="-175.8" font-family="Times,serif" font-size="14.00">AppService</text>
</g>
<!-- AppService&#45;&gt;AppModule -->
<g id="edge4" class="edge">
<title>AppService&#45;&gt;AppModule</title>
<path fill="none" stroke="black" d="M537,-198.11C537,-217.34 537,-245 537,-245 537,-245 664.03,-245 664.03,-245"/>
<polygon fill="black" stroke="black" points="664.03,-248.5 674.03,-245 664.03,-241.5 664.03,-248.5"/>
</g>
<!-- AuthService -->
<g id="node6" class="node">
<title>AuthService</title>
<ellipse fill="#fdb462" stroke="black" cx="215" cy="-104" rx="59.11" ry="18"/>
<text text-anchor="middle" x="215" y="-99.8" font-family="Times,serif" font-size="14.00">AuthService</text>
</g>
<!-- AuthService&#45;&gt;AuthModule -->
<g id="edge6" class="edge">
<title>AuthService&#45;&gt;AuthModule</title>
<path fill="none" stroke="black" d="M215,-122.24C215,-129.43 215,-136 215,-136 215,-136 662,-136 662,-136 662,-136 662,-151.85 662,-151.85"/>
<polygon fill="black" stroke="black" points="658.5,-151.85 662,-161.85 665.5,-151.85 658.5,-151.85"/>
</g>
<!-- JwtStrategy -->
<g id="node7" class="node">
<title>JwtStrategy</title>
<ellipse fill="#fdb462" stroke="black" cx="81" cy="-104" rx="56.76" ry="18"/>
<text text-anchor="middle" x="81" y="-99.8" font-family="Times,serif" font-size="14.00">JwtStrategy</text>
</g>
<!-- JwtStrategy&#45;&gt;AuthModule -->
<g id="edge7" class="edge">
<title>JwtStrategy&#45;&gt;AuthModule</title>
<path fill="none" stroke="black" d="M81,-122.04C81,-134.56 81,-149 81,-149 81,-149 640.11,-149 640.11,-149 640.11,-149 640.11,-151.97 640.11,-151.97"/>
<polygon fill="black" stroke="black" points="636.61,-151.97 640.11,-161.97 643.61,-151.97 636.61,-151.97"/>
</g>
<!-- PrismaService -->
<g id="node9" class="node">
<title>PrismaService</title>
<ellipse fill="#fdb462" stroke="black" cx="935" cy="-180" rx="66.63" ry="18"/>
<text text-anchor="middle" x="935" y="-175.8" font-family="Times,serif" font-size="14.00">PrismaService</text>
</g>
<!-- PrismaService&#45;&gt;PrismaModule -->
<g id="edge9" class="edge">
<title>PrismaService&#45;&gt;PrismaModule</title>
<path fill="none" stroke="black" d="M935,-161.97C935,-141.23 935,-110 935,-110 935,-110 826.5,-110 826.5,-110"/>
<polygon fill="black" stroke="black" points="826.5,-106.5 816.5,-110 826.5,-113.5 826.5,-106.5"/>
</g>
<!-- TasksService -->
<g id="node10" class="node">
<title>TasksService</title>
<ellipse fill="#fdb462" stroke="black" cx="377" cy="-104" rx="62.54" ry="18"/>
<text text-anchor="middle" x="377" y="-99.8" font-family="Times,serif" font-size="14.00">TasksService</text>
</g>
<!-- TasksService&#45;&gt;TasksModule -->
<g id="edge11" class="edge">
<title>TasksService&#45;&gt;TasksModule</title>
<path fill="none" stroke="black" d="M431.48,-95C526.8,-95 713.78,-95 713.78,-95 713.78,-95 713.78,-180 713.78,-180 713.78,-180 714.79,-180 714.79,-180"/>
<polygon fill="black" stroke="black" points="713.83,-183.5 723.83,-180 713.83,-176.5 713.83,-183.5"/>
</g>
</g>
</svg>
